<?xml version="1.0" standalone="no"?>
<!DOCTYPE svg PUBLIC "-//W3C//DTD SVG 20010904//EN"
 "http://www.w3.org/TR/2001/REC-SVG-20010904/DTD/svg10.dtd">
<svg version="1.0" xmlns="http://www.w3.org/2000/svg"
 width="800.000000pt" height="800.000000pt" viewBox="0 0 800.000000 800.000000"
 preserveAspectRatio="xMidYMid meet">
<metadata>
Created by potrace 1.11, written by Peter Selinger 2001-2013
</metadata>
<g transform="translate(0.000000,800.000000) scale(0.100000,-0.100000)"
fill="#000000" stroke="none">
<path d="M0 4000 l0 -4000 4000 0 4000 0 0 4000 0 4000 -4000 0 -4000 0 0
-4000z m3935 2940 l80 -80 80 80 80 80 590 0 590 0 162 -162 163 -163 0 -2837
0 -2838 -330 0 -330 0 0 2665 0 2665 -335 0 -335 0 0 -2665 0 -2665 -335 0
-335 0 0 2665 0 2665 -330 0 -330 0 0 -2665 0 -2665 -335 0 -335 0 0 3000 0
3000 752 0 753 0 80 -80z"/>
</g>
</svg>
